<svg xmlns="http://www.w3.org/2000/svg" viewBox="0 0 27 27"><path d="M1 1h7v7h-7zM9 1h2v1h-1v1h-1zM13 1h2v2h-1v-1h-1zM16 1h1v1h-1zM19 1h7v7h-7zM2 2v5h5v-5zM11 2h1v1h-1zM17 2h1v2h-2v-1h1zM20 2v5h5v-5zM3 3h3v3h-3zM13 3h1v3h-3v1h-1v-2h-1v-1h2v1h1v-1h1zM21 3h3v3h-3zM15 4h1v1h2v3h-1v-2h-2zM14 6h1v1h-1zM9 7h1v1h1v-1h1v2h-3zM13 7h1v1h-1zM15 7h1v1h-1zM1 9h1v1h-1zM3 9h2v1h-1v1h-1zM6 9h3v4h-1v-1h-1v1h-1v1h-1v-2h-1v-1h4v-1h-2zM12 9h3v1h1v1h-1v1h-2v-1h1v-1h-2zM19 9h1v1h-1zM22 9h1v1h-1zM24 9h2v1h-1v1h-1zM10 10h1v1h-1zM17 10h1v1h-1zM20 10h1v1h-1zM2 11h1v1h1v1h-1v1h-2v-1h1zM21 11h3v1h2v3h-1v-1h-1v1h-2v1h-1v-1h-1v1h-2v-2h1v-1h1v1h1zM10 12h1v1h-1zM12 12h1v1h1v2h-1v2h-2v-2h1v-1h-1v-1h1zM16 12h1v1h-1zM18 12h1v1h-1zM22 12v1h1v-1zM7 13h1v1h-1zM15 13h1v1h1v1h-2zM3 14h1v1h-1zM6 14h1v1h2v1h1v1h1v1h1v2h-1v-1h-1v2h-1v-4h-1v-1h-1v1h-1v-1h-1v1h-1v1h-1v-2h1v-1h2zM10 14h1v1h-1zM2 15h1v1h-1zM14 15h1v1h-1zM24 15h1v2h-1zM1 16h1v1h-1zM15 16h3v1h2v-1h1v1h1v1h1v-1h1v1h2v2h-3v-1h-1v1h1v1h-1v2h1v-1h3v1h-1v1h-1v1h2v1h-6v-1h1v-1h-5v1h-3v1h-4v-1h3v-1h3v-1h2v-2h-1v1h-2v-3h1zM7 17h1v1h-1zM13 17h1v1h-1zM16 18v2h1v-2zM18 18v3h3v-3zM1 19h7v7h-7zM19 19h1v1h-1zM2 20v5h5v-5zM12 20h1v1h-1zM3 21h3v3h-3zM11 21h1v1h-1zM9 22h1v2h-1zM20 22v1h1v-1zM11 23h1v1h-1zM18 25h1v1h-1z"/></svg>